HIERARCHY
ROOT hip
{
  OFFSET 0 0 0
  CHANNELS 6 Xposition Yposition Zposition Zrotation Yrotation Xrotation
  JOINT abdomen
  {
    OFFSET 0 20.6881 -0.73152
    CHANNELS 3 Zrotation Xrotation Yrotation
    JOINT chest
    {
      OFFSET 0 11.7043 -0.48768
      CHANNELS 3 Zrotation Xrotation Yrotation
      JOINT neck
      {
        OFFSET 0 22.1894 -2.19456
        CHANNELS 3 Zrotation Xrotation Yrotation
        JOINT head
        {
          OFFSET -0.24384 7.07133 1.2192
          CHANNELS 3 Zrotation Xrotation Yrotation
          JOINT leftEye
          {
            OFFSET 4.14528 8.04674 8.04672
            CHANNELS 3 Zrotation Xrotation Yrotation
            End Site
            {
              OFFSET 1 0 0
            }
          }
          JOINT rightEye
          {
            OFFSET -3.6576 8.04674 8.04672
            CHANNELS 3 Zrotation Xrotation Yrotation
            End Site
            {
              OFFSET 1 0 0
            }
          }
        }
      }
      JOINT rCollar
      {
        OFFSET -2.68224 19.2634 -4.8768
        CHANNELS 3 Zrotation Xrotation Yrotation
        JOINT rShldr
        {
          OFFSET -8.77824 -1.95073 1.46304
          CHANNELS 3 Zrotation Xrotation Yrotation
          JOINT rForeArm
          {
            OFFSET -28.1742 -1.7115 0.48768
            CHANNELS 3 Zrotation Xrotation Yrotation
            JOINT rHand
            {
              OFFSET -22.5879 0.773209 7.07136
              CHANNELS 3 Zrotation Xrotation Yrotation
              JOINT rThumb1
              {
                OFFSET -1.2192 -0.487915 3.41376
                CHANNELS 3 Zrotation Xrotation Yrotation
                JOINT rThumb2
                {
                  OFFSET -3.37035 -0.52449 3.41376
                  CHANNELS 3 Zrotation Xrotation Yrotation
                  End Site
                  {
                    OFFSET -1.78271 -1.18214 1.43049
                  }
                }
              }
              JOINT rIndex1
              {
                OFFSET -7.75947 0.938293 5.60832
                CHANNELS 3 Zrotation Xrotation Yrotation
                JOINT rIndex2
                {
                  OFFSET -2.54057 -0.884171 1.56538
                  CHANNELS 3 Zrotation Xrotation Yrotation
                  End Site
                  {
                    OFFSET -1.62519 -0.234802 1.16502
                  }
                }
              }
              JOINT rMid1
              {
                OFFSET -8.24714 1.18213 3.41376
                CHANNELS 3 Zrotation Xrotation Yrotation
                JOINT rMid2
                {
                  OFFSET -3.10165 -0.590103 1.0647
                  CHANNELS 3 Zrotation Xrotation Yrotation
                  End Site
                  {
                    OFFSET -2.48547 -0.328903 0.83742
                  }
                }
              }
              JOINT rRing1
              {
                OFFSET -8.82822 0.546677 1.51678
                CHANNELS 3 Zrotation Xrotation Yrotation
                JOINT rRing2
                {
                  OFFSET -2.60934 -0.819778 -0.0198488
                  CHANNELS 3 Zrotation Xrotation Yrotation
                  End Site
                  {
                    OFFSET -2.33842 -0.294052 0.168128
                  }
                }
              }
              JOINT rPinky1
              {
                OFFSET -8.27202 -0.0477905 -0.4584
                CHANNELS 3 Zrotation Xrotation Yrotation
                JOINT rPinky2
                {
                  OFFSET -1.82734 -0.647385 -0.700984
                  CHANNELS 3 Zrotation Xrotation Yrotation
                  End Site
                  {
                    OFFSET -1.69225 -0.51767 -0.607171
                  }
                }
              }
            }
          }
        }
      }
      JOINT lCollar
      {
        OFFSET 2.68224 19.2634 -4.8768
        CHANNELS 3 Zrotation Xrotation Yrotation
        JOINT lShldr
        {
          OFFSET 8.77824 -1.95073 1.46304
          CHANNELS 3 Zrotation Xrotation Yrotation
          JOINT lForeArm
          {
            OFFSET 28.1742 -1.7115 0.48768
            CHANNELS 3 Zrotation Xrotation Yrotation
            JOINT lHand
            {
              OFFSET 22.5879 0.773209 7.07136
              CHANNELS 3 Zrotation Xrotation Yrotation
              JOINT lThumb1
              {
                OFFSET 1.2192 -0.487915 3.41376
                CHANNELS 3 Zrotation Xrotation Yrotation
                JOINT lThumb2
                {
                  OFFSET 3.37035 -0.52449 3.41376
                  CHANNELS 3 Zrotation Xrotation Yrotation
                  End Site
                  {
                    OFFSET 1.78271 -1.18214 1.43049
                  }
                }
              }
              JOINT lIndex1
              {
                OFFSET 7.75947 0.938293 5.60832
                CHANNELS 3 Zrotation Xrotation Yrotation
                JOINT lIndex2
                {
                  OFFSET 2.54057 -0.884171 1.56538
                  CHANNELS 3 Zrotation Xrotation Yrotation
                  End Site
                  {
                    OFFSET 1.62519 -0.234802 1.16502
                  }
                }
              }
              JOINT lMid1
              {
                OFFSET 8.24714 1.18213 3.41376
                CHANNELS 3 Zrotation Xrotation Yrotation
                JOINT lMid2
                {
                  OFFSET 3.10165 -0.590103 1.0647
                  CHANNELS 3 Zrotation Xrotation Yrotation
                  End Site
                  {
                    OFFSET 2.48547 -0.328903 0.83742
                  }
                }
              }
              JOINT lRing1
              {
                OFFSET 8.82822 0.546677 1.51678
                CHANNELS 3 Zrotation Xrotation Yrotation
                JOINT lRing2
                {
                  OFFSET 2.60934 -0.819778 -0.0198488
                  CHANNELS 3 Zrotation Xrotation Yrotation
                  End Site
                  {
                    OFFSET 2.33842 -0.294052 0.168128
                  }
                }
              }
              JOINT lPinky1
              {
                OFFSET 8.27202 -0.0477905 -0.4584
                CHANNELS 3 Zrotation Xrotation Yrotation
                JOINT lPinky2
                {
                  OFFSET 1.82734 -0.647385 -0.700984
                  CHANNELS 3 Zrotation Xrotation Yrotation
                  End Site
                  {
                    OFFSET 1.69225 -0.51767 -0.607171
                  }
                }
              }
            }
          }
        }
      }
    }
  }
  JOINT rButtock
  {
    OFFSET -8.77824 4.35084 1.2192
    CHANNELS 3 Zrotation Xrotation Yrotation
    JOINT rThigh
    {
      OFFSET 0 -1.70687 -2.19456
      CHANNELS 3 Zrotation Xrotation Yrotation
      JOINT rShin
      {
        OFFSET 0 -36.8199 0.73152
        CHANNELS 3 Zrotation Xrotation Yrotation
        JOINT rFoot
        {
          OFFSET 0.73152 -45.1104 -5.12064
          CHANNELS 3 Zrotation Xrotation Yrotation
          End Site
          {
            OFFSET -1.1221 -3.69964 12.103
          }
        }
      }
    }
  }
  JOINT lButtock
  {
    OFFSET 8.77824 4.35084 1.2192
    CHANNELS 3 Zrotation Xrotation Yrotation
    JOINT lThigh
    {
      OFFSET 0 -1.70687 -2.19456
      CHANNELS 3 Zrotation Xrotation Yrotation
      JOINT lShin
      {
        OFFSET 0 -36.8199 0.73152
        CHANNELS 3 Zrotation Xrotation Yrotation
        JOINT lFoot
        {
          OFFSET -0.73152 -45.1104 -5.12064
          CHANNELS 3 Zrotation Xrotation Yrotation
          End Site
          {
            OFFSET 1.1221 -3.69964 12.103
          }
        }
      }
    }
  }
}
MOTION
Frames:	4
Frame Time:	0.00833333
57.5518 80.0246 -78.5403 33.9366 79.1557 39.2944 17.9813 15.9941 1.07311 -2.30037 1.20299 1.29502 -11.8848 14.2519 -9.26164 -7.57628 12.6182 -12.7308 -0.0 0.0 0.0 -0.0 0.0 0.0 1.87769e-13 -5.09138e-13 7.67806e-14 22.9964 36.2151 0.612852 -20.9302 -14.2286 40.9888 -1.15249 -28.96 -4.46068 2.42636e-09 1.71729e-09 -8.11423e-10 4.20207e-09 2.92286e-09 -1.34676e-09 2.42637e-09 1.7173e-09 -8.11445e-10 7.73091 5.47488 0.417314 2.42636e-09 1.71728e-09 -8.1142e-10 2.90554 0.965183 0.102902 2.42636e-09 1.71728e-09 -8.11424e-10 10.2786 0.731801 0.0259123 2.42635e-09 1.71728e-09 -8.1141e-10 2.22167 -0.733487 -0.20892 1.87549e-13 -5.09138e-13 7.66315e-14 -36.6569 -10.7382 20.4057 18.6563 -11.4101 -35.5097 0.567373 -20.8973 3.07595 1.60135e-09 -9.1132e-09 -1.36073e-09 2.7927e-09 -1.59987e-08 -2.33328e-09 1.60135e-09 -9.11321e-09 -1.36072e-09 -7.73091 5.47488 -0.417314 1.60135e-09 -9.11321e-09 -1.36073e-09 -2.90554 0.965183 -0.102902 1.60135e-09 -9.11321e-09 -1.36073e-09 -10.2786 0.731801 -0.0259123 1.60136e-09 -9.11321e-09 -1.36073e-09 -2.22167 -0.733487 0.20892 -2.03217e-16 0.0 -3.88251e-19 -25.7746 -17.224 -0.831547 -0.0205341 25.8664 0.565802 -8.22829 -11.0747 -31.0425 2.03217e-16 0.0 3.88251e-19 10.396 -25.7105 7.31362 0.241463 33.8642 -0.566853 0.0345694 -7.17252 -0.964676
57.4933 80.1654 -78.0896 32.2546 78.4804 38.0518 16.7725 16.1714 1.59817 -1.76865 1.45664 1.38423 -11.5512 14.1795 -9.27272 -8.58895 12.2384 -12.7027 -0.0 0.0 0.0 -0.0 0.0 0.0 2.16559e-13 -7.20283e-14 -5.35593e-14 22.2183 37.0292 1.08663 -20.9522 -14.2578 41.0472 -1.25557 -30.1464 -4.67856 2.36375e-09 1.13305e-09 -1.8255e-10 4.06995e-09 1.90833e-09 -2.61153e-10 2.36377e-09 1.13305e-09 -1.82569e-10 7.73091 5.47488 0.417314 2.36375e-09 1.13303e-09 -1.82542e-10 2.90554 0.965183 0.102902 2.36376e-09 1.13303e-09 -1.82551e-10 10.2786 0.731801 0.0259123 2.36375e-09 1.13303e-09 -1.82539e-10 2.22167 -0.733487 -0.20892 2.16347e-13 -7.20284e-14 -5.36878e-14 -37.7084 -12.1625 21.0098 19.0296 -11.8451 -36.3517 0.613007 -21.6778 3.20234 1.9367e-09 -7.93153e-09 -2.68707e-09 3.40287e-09 -1.42366e-08 -4.62318e-09 1.9367e-09 -7.93153e-09 -2.68706e-09 -7.73091 5.47488 -0.417314 1.9367e-09 -7.93154e-09 -2.68707e-09 -2.90554 0.965183 -0.102902 1.9367e-09 -7.93154e-09 -2.68707e-09 -10.2786 0.731801 -0.0259123 1.93671e-09 -7.93154e-09 -2.68708e-09 -2.22167 -0.733487 0.20892 -2.03217e-16 0.0 -3.88251e-19 -27.3138 -18.7098 -3.29323 -0.0353261 26.7937 0.568098 -6.67322 -9.45055 -28.7455 2.03217e-16 0.0 3.88251e-19 9.50763 -25.7539 6.98399 0.234951 33.3235 -0.549516 0.295097 -7.19498 0.24454
57.4365 80.2765 -77.8641 35.4678 76.5805 41.7991 14.2289 16.1498 2.48412 -0.735602 1.81965 1.49924 -10.8234 13.9955 -9.27209 -10.2676 12.021 -12.5525 -0.0 0.0 0.0 -0.0 0.0 0.0 2.65462e-13 5.92427e-13 -2.45642e-13 21.0929 37.9072 1.76199 -20.9521 -14.257 41.0499 -1.40704 -31.7135 -4.97736 1.9918e-09 5.50019e-11 8.4955e-10 3.39026e-09 4.28133e-11 1.51427e-09 1.99182e-09 5.50009e-11 8.49539e-10 7.73091 5.47488 0.417314 1.99179e-09 5.49859e-11 8.49565e-10 2.90554 0.965183 0.102902 1.9918e-09 5.49889e-11 8.49549e-10 10.2786 0.731801 0.0259123 1.99179e-09 5.49902e-11 8.49559e-10 2.22167 -0.733487 -0.20892 2.65282e-13 5.92427e-13 -2.45751e-13 -39.2088 -13.7709 21.6144 19.4453 -12.3408 -37.315 0.661488 -22.4719 3.33234 2.41331e-09 -6.61013e-09 -4.51989e-09 4.26939e-09 -1.23438e-08 -7.78729e-09 2.41331e-09 -6.61013e-09 -4.51989e-09 -7.73091 5.47488 -0.417314 2.41331e-09 -6.61013e-09 -4.51989e-09 -2.90554 0.965183 -0.102902 2.4133e-09 -6.61014e-09 -4.51989e-09 -10.2786 0.731801 -0.0259123 2.41332e-09 -6.61014e-09 -4.5199e-09 -2.22167 -0.733487 0.20892 -2.03217e-16 0.0 -3.88251e-19 -29.8698 -20.7187 -5.61364 -0.0534032 28.0479 0.581567 -5.38919 -8.09211 -26.3462 2.03217e-16 0.0 3.88251e-19 7.78118 -25.7555 6.90394 0.226819 32.56 -0.524946 0.557585 -7.22277 1.46709
57.3574 80.3486 -77.6755 38.6937 74.2133 45.6053 11.3111 16.1765 3.35772 0.466051 2.08565 1.5938 -10.0567 13.8117 -9.2275 -11.965 11.8371 -12.3195 -0.0 0.0 0.0 -0.0 0.0 0.0 3.10486e-13 1.24201e-12 -4.31777e-13 19.7792 38.9475 2.6105 -20.9661 -14.276 41.0855 -1.58094 -33.3152 -5.29684 1.58351e-09 -1.00076e-09 1.82871e-09 2.65007e-09 -1.78261e-09 3.19786e-09 1.58352e-09 -1.00076e-09 1.82871e-09 7.73091 5.47488 0.417314 1.5835e-09 -1.00078e-09 1.82873e-09 2.90554 0.965183 0.102902 1.58351e-09 -1.00077e-09 1.82871e-09 10.2786 0.731801 0.0259123 1.5835e-09 -1.00077e-09 1.82872e-09 2.22167 -0.733487 -0.20892 3.10345e-13 1.24201e-12 -4.31873e-13 -40.787 -15.3018 22.3832 19.827 -12.8035 -38.2365 0.709926 -23.2237 3.45701 2.77934e-09 -4.81026e-09 -6.17499e-09 4.94117e-09 -9.59284e-09 -1.06457e-08 2.77934e-09 -4.81026e-09 -6.17499e-09 -7.73091 5.47488 -0.417314 2.77934e-09 -4.81026e-09 -6.17499e-09 -2.90554 0.965183 -0.102902 2.77933e-09 -4.81027e-09 -6.17499e-09 -10.2786 0.731801 -0.0259123 2.77934e-09 -4.81027e-09 -6.175e-09 -2.22167 -0.733487 0.20892 -2.03217e-16 0.0 -3.88251e-19 -32.6054 -22.758 -7.53124 -0.0721766 29.3454 0.600071 -4.43792 -7.03911 -24.1999 2.03217e-16 0.0 3.88251e-19 5.90069 -25.7237 6.97062 0.219638 31.7981 -0.500469 0.80132 -7.29086 2.59274
